<?xml version="1.0" encoding="UTF-8"?>
<svg xmlns="http://www.w3.org/2000/svg" xmlns:xlink="http://www.w3.org/1999/xlink" width="16pt" height="17pt" viewBox="0 0 16 17" version="1.1">
<g id="surface1">
<path style=" stroke:none;fill-rule:nonzero;fill:rgb(0%,0%,0%);fill-opacity:1;" d="M 16 8.691406 C 16 13.390625 12.824219 16.734375 8.132812 16.734375 C 3.632812 16.734375 0 13.054688 0 8.5 C 0 3.945312 3.632812 0.265625 8.132812 0.265625 C 10.320312 0.265625 12.164062 1.078125 13.582031 2.421875 L 11.371094 4.574219 C 8.476562 1.746094 3.09375 3.871094 3.09375 8.5 C 3.09375 11.371094 5.355469 13.699219 8.132812 13.699219 C 11.351562 13.699219 12.558594 11.363281 12.746094 10.148438 L 8.132812 10.148438 L 8.132812 7.316406 L 15.871094 7.316406 C 15.949219 7.738281 16 8.144531 16 8.691406 Z M 16 8.691406 "/>
</g>
</svg>
