<?xml version="1.0" encoding="UTF-8"?>
<svg xmlns="http://www.w3.org/2000/svg" xmlns:xlink="http://www.w3.org/1999/xlink" width="16pt" height="13pt" viewBox="0 0 16 13" version="1.1">
<g id="surface1">
<path style=" stroke:none;fill-rule:nonzero;fill:rgb(0%,0%,0%);fill-opacity:1;" d="M 8.5 0.164062 C 4.226562 0.164062 0 1.902344 0 4.710938 C 0 6.5 1.648438 7.515625 2.648438 7.515625 C 3.0625 7.515625 3.300781 6.816406 3.300781 6.617188 C 3.300781 6.378906 2.3125 5.878906 2.3125 4.894531 C 2.3125 2.855469 4.863281 1.40625 8.164062 1.40625 C 11 1.40625 13.101562 2.390625 13.101562 4.195312 C 13.101562 5.542969 12.210938 8.070312 9.335938 8.070312 C 8.300781 8.070312 7.414062 7.613281 7.414062 6.960938 C 7.414062 6 8.511719 5.070312 8.511719 4.082031 C 8.511719 2.398438 4.601562 2.703125 4.601562 4.734375 C 4.601562 5.160156 4.6875 5.632812 5 6.023438 C 4.425781 7.53125 3.25 9.777344 3.25 11.332031 C 3.25 11.8125 3.363281 12.285156 3.4375 12.765625 C 3.578125 12.859375 3.507812 12.851562 3.726562 12.800781 C 5.824219 11.050781 5.75 10.707031 6.699219 8.414062 C 7.210938 9.007812 8.539062 9.328125 9.585938 9.328125 C 14.011719 9.328125 16 6.699219 16 4.332031 C 16 1.808594 12.425781 0.164062 8.5 0.164062 Z M 8.5 0.164062 "/>
</g>
</svg>
